<svg width="79" height="81" viewBox="0 0 79 81" fill="none" xmlns="http://www.w3.org/2000/svg">
<path d="M78.7422 5.17634C78.4126 3.74902 77.7544 2.41722 76.71 1.3294C75.9564 0.544447 74.8747 0.094114 73.7963 0.0204813C69.9522 -0.241984 66.7732 2.06617 63.8038 4.18911C54.6057 10.7654 46.5576 19.0733 39.5668 27.9306C32.5549 36.8222 26.865 46.6749 22.4753 57.0838C20.9715 55.1981 19.4664 53.3133 17.96 51.4296C14.8006 47.4642 11.7796 43.1989 8.15356 39.6443C6.00036 37.5335 2.93127 38.7326 1.53791 41.0539C-3.31711 49.1423 4.48901 56.998 8.83584 63.2022C12.334 68.1952 15.8276 73.1912 19.3167 78.1904C22.3171 82.5107 27.3354 81.715 29.2595 76.7211C34.2719 63.7115 39.7889 53.7331 48.3592 42.818C52.5481 37.4831 56.2257 33.5166 61.217 28.9661C65.1949 25.3394 69.5219 22.1205 73.5082 18.5034C77.075 15.2669 79.8831 10.1159 78.7422 5.17634Z" fill="url(#paint0_linear)"/>
<defs>
<linearGradient id="paint0_linear" x1="-2.20724e-07" y1="40.5" x2="79" y2="40.5" gradientUnits="userSpaceOnUse">
<stop stop-color="#5D83CE"/>
<stop offset="1" stop-color="#75C2EE"/>
</linearGradient>
</defs>
</svg>
